<svg id="visual" viewBox="0 0 960 540" width="960" height="540" xmlns="http://www.w3.org/2000/svg" xmlns:xlink="http://www.w3.org/1999/xlink" version="1.1"><rect x="0" y="0" width="960" height="540" fill="#001220"></rect><path d="M0 425L14.5 426.3C29 427.7 58 430.3 87.2 431.5C116.3 432.7 145.7 432.3 174.8 438.2C204 444 233 456 262 456.2C291 456.3 320 444.7 349 436.7C378 428.7 407 424.3 436.2 429.3C465.3 434.3 494.7 448.7 523.8 451.7C553 454.7 582 446.3 611 440.2C640 434 669 430 698 433.8C727 437.7 756 449.3 785.2 455.2C814.3 461 843.7 461 872.8 453.8C902 446.7 931 432.3 945.5 425.2L960 418L960 541L945.5 541C931 541 902 541 872.8 541C843.7 541 814.3 541 785.2 541C756 541 727 541 698 541C669 541 640 541 611 541C582 541 553 541 523.8 541C494.7 541 465.3 541 436.2 541C407 541 378 541 349 541C320 541 291 541 262 541C233 541 204 541 174.8 541C145.7 541 116.3 541 87.2 541C58 541 29 541 14.5 541L0 541Z" fill="#00b469"></path><path d="M0 438L14.5 441C29 444 58 450 87.2 452C116.3 454 145.7 452 174.8 455.7C204 459.3 233 468.7 262 469.8C291 471 320 464 349 464.3C378 464.7 407 472.3 436.2 476C465.3 479.7 494.7 479.3 523.8 479.8C553 480.3 582 481.7 611 480.8C640 480 669 477 698 476.8C727 476.7 756 479.3 785.2 480.8C814.3 482.3 843.7 482.7 872.8 478.2C902 473.7 931 464.3 945.5 459.7L960 455L960 541L945.5 541C931 541 902 541 872.8 541C843.7 541 814.3 541 785.2 541C756 541 727 541 698 541C669 541 640 541 611 541C582 541 553 541 523.8 541C494.7 541 465.3 541 436.2 541C407 541 378 541 349 541C320 541 291 541 262 541C233 541 204 541 174.8 541C145.7 541 116.3 541 87.2 541C58 541 29 541 14.5 541L0 541Z" fill="#00945e"></path><path d="M0 496L14.5 494C29 492 58 488 87.2 482.8C116.3 477.7 145.7 471.3 174.8 469.5C204 467.7 233 470.3 262 475.3C291 480.3 320 487.7 349 486.5C378 485.3 407 475.7 436.2 471.5C465.3 467.3 494.7 468.7 523.8 469C553 469.3 582 468.7 611 472.3C640 476 669 484 698 489.5C727 495 756 498 785.2 495.3C814.3 492.7 843.7 484.3 872.8 479C902 473.7 931 471.3 945.5 470.2L960 469L960 541L945.5 541C931 541 902 541 872.8 541C843.7 541 814.3 541 785.2 541C756 541 727 541 698 541C669 541 640 541 611 541C582 541 553 541 523.8 541C494.7 541 465.3 541 436.2 541C407 541 378 541 349 541C320 541 291 541 262 541C233 541 204 541 174.8 541C145.7 541 116.3 541 87.2 541C58 541 29 541 14.5 541L0 541Z" fill="#007550"></path><path d="M0 502L14.5 503.2C29 504.3 58 506.7 87.2 507.2C116.3 507.7 145.7 506.3 174.8 506.2C204 506 233 507 262 508.8C291 510.7 320 513.3 349 512.8C378 512.3 407 508.7 436.2 505.5C465.3 502.3 494.7 499.7 523.8 501.5C553 503.3 582 509.7 611 511.3C640 513 669 510 698 507.2C727 504.3 756 501.7 785.2 504.3C814.3 507 843.7 515 872.8 515.3C902 515.7 931 508.3 945.5 504.7L960 501L960 541L945.5 541C931 541 902 541 872.8 541C843.7 541 814.3 541 785.2 541C756 541 727 541 698 541C669 541 640 541 611 541C582 541 553 541 523.8 541C494.7 541 465.3 541 436.2 541C407 541 378 541 349 541C320 541 291 541 262 541C233 541 204 541 174.8 541C145.7 541 116.3 541 87.2 541C58 541 29 541 14.5 541L0 541Z" fill="#075740"></path></svg>