<svg xmlns="http://www.w3.org/2000/svg" xmlns:xlink="http://www.w3.org/1999/xlink" version="1.1" id="Layer_1" x="0px" y="0px" viewBox="0 0 316.5 93.2" style="enable-background:new 0 0 316.5 93.2;" xml:space="preserve" class="svg replaced-svg"><style type="text/css">
                  .st0 {
                    fill: #4D4D4F;
                  }

                  .st1 {
                    fill: #005133;
                  }

                </style><path class="st0" d="M103.3,34.8c0,0,2,1.7,4.7,1.7c1.6,0,2.6-0.6,2.6-1.7c0-3-8.4-3-8.4-8.8c0-3.2,2.5-6,7-6c2.8,0,5.5,0.9,5.5,0.9  l-0.6,4c0,0-2.4-1-4.7-1c-1.7,0-2.5,0.6-2.5,1.5c0,3,8.4,2.8,8.4,8.9c0,3.7-3.2,6-7.1,6c-3.7,0-6.2-1.7-6.2-1.7L103.3,34.8z"/><path class="st0" d="M123.9,20.4h4.3l7.3,19.8h-4.6l-1.2-3.5h-7.3l-1.2,3.5h-4.5L123.9,20.4z M123.6,32.8h4.7l-2.4-6.7L123.6,32.8z"/><path class="st0" d="M147.3,20.1c4.7,0,7,1.6,7,1.6l-1.7,3.8c0,0-1.8-1.4-5.4-1.4c-3.8,0-6.5,2.3-6.5,6.2c0,4.2,3.1,6.2,6.4,6.2  c3.6,0,5.7-1.7,5.7-1.7l1.9,3.3c0,0-2.4,2.4-7.8,2.4c-5.7,0-10.7-3.3-10.7-9.8C136,24.8,140.3,20.1,147.3,20.1"/><path class="st0" d="M157.4,20.5h7.3c5.1,0,7.4,2.7,7.4,6.2c0,2.3-1.1,4.2-3,5.3l5.3,8.2H169l-4.4-6.9H162v6.9h-4.6V20.5z   M163.6,29.4c3,0,3.8-1.2,3.8-2.7c0-1.5-0.8-2.5-3.3-2.5h-2v5.2H163.6z"/><polygon class="st0" points="176.9,20.5 189.7,20.5 189.7,24.3 181.4,24.3 181.4,28.2 188,28.2 188,32.1 181.4,32.1 181.4,36.3   190.1,36.3 190.1,40.1 176.9,40.1 "/><path class="st0" d="M193.4,20.5h7.6c5.3,0,10.7,2.5,10.7,9.5c0,6.6-4.8,10.2-11.8,10.2h-6.5V20.5z M199.6,36.3  c5.3,0,7.4-2.7,7.4-6.2c0-3.4-2-5.8-6.4-5.8H198v12.1H199.6z"/><polygon class="st0" points="222.5,20.5 227.1,20.5 227.1,28.1 236.2,28.1 236.2,20.5 240.8,20.5 240.8,40.1 236.2,40.1 236.2,32   227.1,32 227.1,40.1 222.5,40.1 "/><polygon class="st0" points="245.4,20.5 258.3,20.5 258.3,24.3 250,24.3 250,28.2 256.5,28.2 256.5,32.1 250,32.1 250,36.3   258.7,36.3 258.7,40.1 245.4,40.1 "/><path class="st0" d="M268.4,20.4h4.3l7.3,19.8h-4.6l-1.2-3.5h-7.3l-1.2,3.5h-4.5L268.4,20.4z M268.2,32.8h4.7l-2.4-6.7L268.2,32.8z"/><path class="st0" d="M282.5,20.5h7.3c5.1,0,7.4,2.7,7.4,6.2c0,2.3-1.1,4.2-3,5.3l5.3,8.2h-5.4l-4.4-6.9h-2.6v6.9h-4.6V20.5z   M288.7,29.4c3,0,3.7-1.2,3.7-2.7c0-1.5-0.8-2.5-3.3-2.5h-2v5.2H288.7z"/><polygon class="st0" points="305.9,24.3 299.7,24.3 299.7,20.5 316.5,20.5 316.5,24.3 310.5,24.3 310.5,40.1 305.9,40.1 "/><polygon class="st0" points="159.4,48 163.9,48 163.9,55.7 173,55.7 173,48 177.6,48 177.6,67.7 173,67.7 173,59.5 163.9,59.5   163.9,67.7 159.4,67.7 "/><path class="st0" d="M113.2,47.6c4.7,0,7,1.6,7,1.6l-1.7,3.8c0,0-1.8-1.4-5.4-1.4c-3.8,0-6.5,2.3-6.5,6.2c0,4.2,3.1,6.2,6.4,6.2  c3.6,0,5.7-1.7,5.7-1.7l1.9,3.3c0,0-2.4,2.4-7.8,2.4c-5.7,0-10.7-3.3-10.7-9.8C102,52.3,106.3,47.6,113.2,47.6"/><path class="st0" d="M129.1,47.9h4.3l7.3,19.8h-4.6l-1.2-3.5h-7.3l-1.2,3.5h-4.5L129.1,47.9z M128.9,60.3h4.7l-2.4-6.7L128.9,60.3z"/><polygon class="st0" points="145.9,51.8 139.7,51.8 139.7,48 156.5,48 156.5,51.8 150.5,51.8 150.5,67.7 145.9,67.7 "/><polygon class="st0" points="181.6,48 194.5,48 194.5,51.8 186.2,51.8 186.2,55.8 192.8,55.8 192.8,59.6 186.2,59.6 186.2,63.9   194.9,63.9 194.9,67.7 181.6,67.7 "/><path class="st0" d="M198.2,48h7.6c5.3,0,10.7,2.5,10.7,9.5c0,6.6-4.8,10.1-11.8,10.1h-6.5V48z M204.4,63.9c5.3,0,7.4-2.7,7.4-6.2  c0-3.4-2-5.8-6.4-5.8h-2.6v12.1H204.4z"/><path class="st0" d="M219.5,48h7.3c5.1,0,7.4,2.7,7.4,6.2c0,2.3-1.1,4.2-3,5.3l5.3,8.2H231l-4.4-6.9H224v6.9h-4.6V48z M225.7,56.9  c3,0,3.7-1.2,3.7-2.7c0-1.5-0.8-2.5-3.3-2.5h-2v5.2H225.7z"/><path class="st0" d="M244.6,47.9h4.3l7.3,19.8h-4.6l-1.2-3.5H243l-1.2,3.5h-4.5L244.6,47.9z M244.3,60.3h4.7l-2.4-6.7L244.3,60.3z"/><polygon class="st0" points="258.7,48 263.3,48 263.3,63.9 271.9,63.9 271.9,67.7 258.7,67.7 "/><path class="st0" d="M102.8,78h2.3c1.9,0,2.6,1,2.6,2.2c0,1.5-1.1,2.4-2.6,2.4h-1.2v2.6h-1.1V78z M104.9,81.6c1.1,0,1.6-0.5,1.6-1.4  c0-0.8-0.4-1.4-1.6-1.4h-1v2.7H104.9z"/><path class="st0" d="M119.9,78h2.1c1.9,0,2.6,1,2.6,2.1c0,1-0.7,1.7-1.4,2l2.1,3.2H124l-1.9-2.9H121v2.9h-1.1V78z M122,81.4  c0.8,0,1.5-0.5,1.5-1.3c0-0.7-0.4-1.2-1.6-1.2H121v2.5H122z"/><polygon class="st0" points="137.3,78 141.7,78 141.7,78.9 138.5,78.9 138.5,81.1 141.1,81.1 141.1,82 138.5,82 138.5,84.3   141.8,84.3 141.8,85.2 137.3,85.2 "/><path class="st0" d="M154.1,78h2.3c1.9,0,2.6,1,2.6,2.2c0,1.5-1.1,2.4-2.6,2.4h-1.2v2.6h-1.1V78z M156.2,81.6c1.1,0,1.6-0.5,1.6-1.4  c0-0.8-0.4-1.4-1.6-1.4h-1v2.7H156.2z"/><path class="st0" d="M172.7,77.9h1.1l2.8,7.3h-1.1l-0.7-1.9h-2.9l-0.7,1.9h-1.1L172.7,77.9z M172.1,82.4h2.2l-1.1-3L172.1,82.4z"/><path class="st0" d="M188.4,78h2.1c1.9,0,2.6,1,2.6,2.1c0,1-0.7,1.7-1.4,2l2.1,3.2h-1.3l-1.9-2.9h-1.1v2.9h-1.1V78z M190.5,81.4  c0.8,0,1.5-0.5,1.5-1.3c0-0.7-0.4-1.2-1.6-1.2h-0.8v2.5H190.5z"/><path class="st0" d="M207.8,77.9h1.1l2.8,7.3h-1.2l-0.7-1.9h-2.9l-0.7,1.9H205L207.8,77.9z M207.2,82.4h2.2l-1.1-3L207.2,82.4z"/><polygon class="st0" points="224.7,78.9 222.2,78.9 222.2,78 228.3,78 228.3,78.9 225.8,78.9 225.8,85.2 224.7,85.2 "/><path class="st0" d="M243.5,77.9c2.3,0,3.8,1.6,3.8,3.6c0,2-1.5,3.9-3.9,3.9c-2.3,0-3.8-1.7-3.8-3.7C239.6,79.7,241,77.9,243.5,77.9   M243.4,84.4c1.7,0,2.7-1.4,2.7-2.8c0-1.4-0.9-2.7-2.7-2.7c-1.7,0-2.7,1.4-2.7,2.8C240.8,82.9,241.7,84.4,243.4,84.4"/><path class="st0" d="M259.6,78h2.1c1.9,0,2.6,1,2.6,2.1c0,1-0.7,1.7-1.4,2l2.1,3.2h-1.3l-1.9-2.9h-1.1v2.9h-1.1V78z M261.7,81.4  c0.8,0,1.5-0.5,1.5-1.3c0-0.7-0.4-1.2-1.6-1.2h-0.8v2.5H261.7z"/><polygon class="st0" points="278.6,82.1 276,78 277.3,78 279.1,81 281,78 282.3,78 279.7,82.1 279.7,85.2 278.6,85.2 "/><path class="st1" d="M68.7,7.1C66.6,2.2,58.6-4.3,45.5,4C32.4-4.3,24.4,2.2,22.3,7.1c-2.5,5.8,0.7,11.4,5.8,17.5  c4.7,5.7,17.4,18.2,17.4,18.2s2.4-2.2,5.4-5.4l-6.8-6.7C38.7,25,27.3,15.8,31.1,10.3c3.9-5.8,13.2,1.6,14.4,2.6  c1.3-1,10.6-8.4,14.4-2.6c3.8,5.7-7,14.6-12.4,20l5.3,5.2c4.4-4.6,8.7-9.2,10.1-10.8C66.7,20.4,71.2,12.9,68.7,7.1"/><path class="st1" d="M8.8,20.1c-5,1.9-11.9,9.6-4.2,23c-8.9,12.7-2.7,21,2,23.3c5.6,2.8,12.7-1,17.8-5c3-2.4,7.8-6.5,11.4-9.8  c2.2-1.9,7.7-7,7.7-7s-2.2-2.3-5.2-5.4c0,0-4.4,4.1-6.9,6.5l0,0c-5.6,5.3-15.8,16-21.1,12c-5.6-4.1,2.2-13.1,3.3-14.3  c-1-1.3-7.9-11-1.9-14.6c5.8-3.5,14.3,7.7,19.3,13.4l5.4-5c-4.4-4.6-8.8-9.2-10.2-10.6C22,22.7,14.7,17.9,8.8,20.1"/><path class="st1" d="M86.3,43.5c7.7-13.4,0.8-21.2-4.2-23.1C76.3,18.2,68.9,23,64.9,27C62.2,29.7,47.4,45,47.4,45s0,0,0,0  c-5.4,5.7-7.6,9.2-8.3,10.5C25.9,80.2,50.2,93.2,53,93.2C44.8,83,40.8,66.4,49.8,54.3c3.4-4.5,9.9-11.4,9.9-11.4  c6.2-6.2,14.6-16.9,19.7-13.6c5.8,3.9-1,13.2-2,14.5c1.1,1.2,8.8,10.2,3.3,14.3c-5.5,4.1-15.1-6.4-20.6-11.6l-4.9,5.5  c5.5,5.5,9.5,8.5,11.2,9.8c4.6,3.5,12.3,7.7,18,4.9C89,64.5,95.2,56.2,86.3,43.5"/></svg>